<svg width="149" height="52" viewBox="0 0 149 52" fill="none" xmlns="http://www.w3.org/2000/svg">
<path d="M83.1309 28.1855C85.6216 28.1856 87.6773 28.6508 89.2979 29.5811C90.9185 30.4814 92.1191 31.8172 92.8994 33.5879C93.6797 35.3585 94.0693 37.5045 94.0693 40.0254C94.0693 43.8368 93.1241 46.7928 91.2334 48.8936C89.3727 50.9643 86.7019 52 83.2207 52C79.5593 52 76.828 50.9643 75.0273 48.8936C73.2567 46.8228 72.3711 43.8668 72.3711 40.0254C72.3711 35.9438 73.2865 32.9571 75.1172 31.0664C76.9779 29.1458 79.6496 28.1855 83.1309 28.1855ZM140.41 28.2764C142.001 28.3064 143.292 28.5012 144.282 28.8613C145.303 29.2214 146.293 29.6568 147.253 30.167L147.298 34.2188C146.218 33.6486 145.198 33.1526 144.237 32.7324C143.277 32.3123 142.166 32.1025 140.905 32.1025C139.735 32.1026 138.76 32.3273 137.979 32.7773C137.199 33.1974 136.81 33.8279 136.81 34.668C136.81 35.3882 137.019 35.9588 137.439 36.3789C137.89 36.7991 138.46 37.129 139.15 37.3691C139.871 37.6092 140.636 37.8498 141.446 38.0898C142.196 38.3299 142.977 38.5854 143.787 38.8555C144.597 39.0956 145.348 39.4554 146.038 39.9355C146.728 40.4157 147.283 41.046 147.703 41.8262C148.153 42.6065 148.379 43.6272 148.379 44.8877C148.349 46.5682 147.899 47.934 147.028 48.9844C146.188 50.0345 145.077 50.7991 143.697 51.2793C142.317 51.7595 140.89 52 139.42 52C137.799 52 136.419 51.8201 135.278 51.46C134.168 51.1298 133.073 50.7094 131.992 50.1992V45.7422C132.772 46.2223 133.538 46.6577 134.288 47.0479C135.038 47.408 135.819 47.6932 136.629 47.9033C137.469 48.1134 138.4 48.2187 139.42 48.2188C140.71 48.2188 141.716 47.9484 142.437 47.4082C143.187 46.8681 143.561 46.1929 143.562 45.3828C143.562 44.6926 143.322 44.1519 142.842 43.7617C142.392 43.3716 141.806 43.0416 141.086 42.7715C140.366 42.5014 139.615 42.231 138.835 41.9609C138.025 41.7509 137.214 41.5113 136.404 41.2412C135.594 40.9411 134.844 40.5505 134.153 40.0703C133.493 39.5601 132.952 38.9151 132.532 38.1348C132.142 37.3545 131.947 36.3942 131.947 35.2539C131.947 33.9934 132.203 32.9279 132.713 32.0576C133.223 31.1573 133.883 30.4367 134.693 29.8965C135.534 29.3263 136.449 28.9217 137.439 28.6816C138.46 28.4116 139.45 28.2764 140.41 28.2764ZM7.38477 43.9229C7.38479 44.8132 7.5149 45.4958 7.77539 45.9707C8.06495 46.4159 8.58614 46.6386 9.33887 46.6387C9.74416 46.6387 10.0923 46.6092 10.3818 46.5498C10.6713 46.4904 11.0047 46.4019 11.3809 46.2832L10.9023 50.8252C10.4102 51.1516 9.72974 51.4192 8.86133 51.627C8.02181 51.8347 7.22535 51.9384 6.47266 51.9385C4.01141 51.9385 2.31726 51.3294 1.39062 50.1123C0.46405 48.8654 8.80819e-06 47.1289 0 44.9023V19.7861L7.38477 13.585V43.9229ZM35.7168 29.2275H42.0586V34.6152H35.7168V43.5664C35.7168 44.6352 35.9628 45.4078 36.4551 45.8828C36.9473 46.328 37.6426 46.5507 38.54 46.5508C39.2058 46.5508 39.7852 46.4612 40.2773 46.2832C40.7695 46.1051 41.2187 45.8672 41.624 45.5703L42.4062 50.2461C41.6824 50.7507 40.77 51.1666 39.6699 51.4932C38.5986 51.79 37.4974 51.9385 36.3682 51.9385C33.9072 51.9384 31.9526 51.4045 30.5049 50.3359C29.086 49.2375 28.377 47.3964 28.377 44.8135V34.6152H24.6846V29.2275H28.377V24.2393L35.7168 22.1465V29.2275ZM56.2959 19.6719C56.746 19.6719 57.1964 19.7017 57.6465 19.7617C58.0967 19.8217 58.4873 19.8963 58.8174 19.9863V24.1729C58.5473 24.0228 58.262 23.9025 57.9619 23.8125C57.6918 23.6925 57.331 23.6328 56.8809 23.6328C56.431 23.6328 55.9811 23.6776 55.5312 23.7676C55.0811 23.8276 54.6756 24.0085 54.3154 24.3086C53.9554 24.5787 53.67 24.9983 53.46 25.5684C53.2499 26.1385 53.1446 26.919 53.1445 27.9092V29.2148H58.8174V33.1318H53.0996V51.8135H48.373V33.1318H44.7715V29.2148H48.418V28.3145C48.418 26.7241 48.5831 25.4038 48.9131 24.3535C49.2732 23.3031 49.7384 22.4623 50.3086 21.832C50.8787 21.2019 51.509 20.7366 52.1992 20.4365C52.8895 20.1064 53.5802 19.8967 54.2705 19.8066C54.9907 19.7166 55.6658 19.6719 56.2959 19.6719ZM67.7754 51.8135H63.0938V20.6621H67.7754V51.8135ZM105.537 46.2373L110.312 29.2148H114.229L119.126 46.3379L124.268 29.2148H129.13L121.566 51.8135H117.11L112.243 35.7432L107.432 51.8135H102.975L95.457 29.2148H100.499L105.537 46.2373ZM21.4688 51.4941H14.085V29.2275H21.4688V51.4941ZM83.1758 32.1475C81.6752 32.1475 80.4746 32.4625 79.5742 33.0928C78.6739 33.723 78.0288 34.6235 77.6387 35.7939C77.2486 36.9644 77.0527 38.3749 77.0527 40.0254C77.0527 42.5163 77.5179 44.4674 78.4482 45.8779C79.3786 47.2884 80.955 47.9932 83.1758 47.9932C84.7062 47.9931 85.922 47.6631 86.8223 47.0029C87.7225 46.3127 88.3677 45.3673 88.7578 44.167C89.178 42.9666 89.3877 41.5859 89.3877 40.0254C89.3877 38.2847 89.178 36.8286 88.7578 35.6582C88.3376 34.4879 87.6766 33.618 86.7764 33.0479C85.8761 32.4478 84.6761 32.1475 83.1758 32.1475ZM22.6299 0C23.7101 0.358763 25.2076 0.986669 26.165 1.65918C31.2228 5.17938 32.2052 11.7943 28.3506 16.4355L19.2656 27.2646C17.9399 26.9283 16.6139 26.3227 15.46 25.5156C10.5495 22.1075 9.59222 15.6952 13.3242 11.1885L22.458 0.202148C22.458 0.179727 22.6299 0 22.6299 0ZM17.0312 13.7666C14.9688 16.2554 15.3618 19.776 17.8662 21.8164L24.5449 13.7891C26.6315 11.2555 26.2872 7.73541 23.8076 5.60547L17.0312 13.7666ZM29.3643 20.2578L28.3994 21.2227L27.4346 20.2578L28.3994 19.293L29.3643 20.2578ZM13.9297 7.7168L12.9648 8.68164L12 7.7168L12.9648 6.75293L13.9297 7.7168ZM16.8232 1.92969L18.7529 2.89355L16.8232 3.8584L15.8594 5.78809L14.8945 3.8584L12.9648 2.89355L14.8945 1.92969L15.8594 0L16.8232 1.92969Z" fill="white"/>
</svg>
